<?xml version="1.0" encoding="UTF-8" standalone="no"?>
<!-- Created with Inkscape (http://www.inkscape.org/) -->

<svg
   xmlns:dc="http://purl.org/dc/elements/1.1/"
   xmlns:cc="http://creativecommons.org/ns#"
   xmlns:rdf="http://www.w3.org/1999/02/22-rdf-syntax-ns#"
   xmlns:svg="http://www.w3.org/2000/svg"
   xmlns="http://www.w3.org/2000/svg"
   xmlns:sodipodi="http://sodipodi.sourceforge.net/DTD/sodipodi-0.dtd"
   xmlns:inkscape="http://www.inkscape.org/namespaces/inkscape"
   id="svg2"
   version="1.1"
   inkscape:version="0.91 r13725"
   width="2048"
   height="2048"
   viewBox="0 0 2048 2048"
   sodipodi:docname="Gothic Glyph 04.svg">
  <metadata
     id="metadata8">
    <rdf:RDF>
      <cc:Work
         rdf:about="">
        <dc:format>image/svg+xml</dc:format>
        <dc:type
           rdf:resource="http://purl.org/dc/dcmitype/StillImage" />
        <dc:title></dc:title>
      </cc:Work>
    </rdf:RDF>
  </metadata>
  <defs
     id="defs6" />
  <sodipodi:namedview
     pagecolor="#ffffff"
     bordercolor="#666666"
     borderopacity="1"
     objecttolerance="10"
     gridtolerance="10"
     guidetolerance="10"
     inkscape:pageopacity="0"
     inkscape:pageshadow="2"
     inkscape:window-width="640"
     inkscape:window-height="480"
     id="namedview4"
     showgrid="false"
     inkscape:zoom="0.27783203"
     inkscape:cx="1024"
     inkscape:cy="1024"
     inkscape:current-layer="svg2" />
  <path
     style=""
     d="m 573.47612,2045.7747 c -14.24868,-2.5216 -53.8859,-9.4992 -88.08272,-15.5026 -34.19682,-6.0034 -103.27882,-23.0811 -153.51554,-37.9516 -77.48865,-22.936 -93.71145,-31.6234 -106.98147,-57.2848 -8.60313,-16.6356 -13.92208,-31.9654 -11.81994,-34.069 2.10224,-2.1071 54.90703,12.9499 117.34418,33.4507 138.93042,45.613 281.923,57.3332 383.0172,31.3885 101.88911,-26.145 180.84443,-59.3401 217.32743,-91.3746 52.94237,-46.4835 67.71557,-97.3918 79.15754,-272.7766 11.2251,-172.0618 8.4522,-735.39745 -3.6794,-747.50445 -4.2054,-4.1969 -119.14748,-2.7979 -255.42672,3.1433 -280.11541,12.1623 -296.8978,16.7668 -333.00079,91.347 -24.37215,50.3453 -25.33999,71.31935 -5.84155,126.58345 14.05258,39.8272 7.885,64.67 -16.05603,64.67 -4.18548,0 -61.32201,-68.0448 -126.97006,-151.21205 l -119.3601,-151.2122 79.8199,-115.9756 c 43.90095,-63.7891 89.53329,-129.2536 101.40525,-145.4815 l 21.58535,-29.5025 71.67871,35.0362 71.67871,35.0327 248.70415,-3.582 c 136.78728,-1.9689 252.20155,-5.7444 256.47618,-8.3834 14.6632,-9.057 8.0176,-182.6905 -9.36308,-244.6351 -22.48842,-80.1484 -47.72049,-98.2934 -111.74537,-80.3694 -49.75347,13.9308 -68.01036,8.7979 -68.01036,-19.1157 0,-16.5803 236.39701,-260.4934438973892 252.46971,-260.4934438973892 3.8644,0 60.7739,40.3695398973892 126.4654,89.7131398973892 89.8107,67.457504 117.7054,93.806304 112.4496,106.217404 -33.3976,78.8599 -46.2905,123.6819 -54.3953,189.1084 -10.5589,85.2399 -3.2867,1125.47255 8.0158,1146.61245 4.9064,9.1778 27.3127,-10.7979 69.7531,-62.1761 52.1104,-63.0879 197.4013,-261.0461 224.5263,-305.9164 5.1025,-8.4387 -13.906,-23.3955 -57.543,-45.2676 -35.8395,-17.9689 -66.993,-34.3316 -69.23,-36.3696 -8.9287,-8.1278 23.3957,-35.2918 41.9973,-35.2918 16.0297,0 419.1414,160.086 432.0334,171.5713 5.6096,4.9983 -444.5808,511.3289 -502.072,564.6828 -177.3043,164.5454 -410.24421,256.6454 -667.37169,263.8613 -71.24338,2.0034 -141.19142,1.5544 -155.44009,-0.9672 z"
     id="path4138"
     inkscape:connector-curvature="0" />
</svg>
